<svg xmlns="http://www.w3.org/2000/svg" viewBox="0 0 800 450">
  <defs>
    <linearGradient id="fnBg" x1="0" y1="0" x2="1" y2="1">
      <stop offset="0%" stop-color="#050a08" />
      <stop offset="50%" stop-color="#0b1a13" />
      <stop offset="100%" stop-color="#030705" />
    </linearGradient>
    <linearGradient id="cyberGreen" x1="0" y1="0" x2="1" y2="1">
      <stop offset="0%" stop-color="#39e68b" />
      <stop offset="100%" stop-color="#22d1ee" />
    </linearGradient>
    <linearGradient id="amberAlert" x1="0" y1="0" x2="1" y2="1">
      <stop offset="0%" stop-color="#ffb703" />
      <stop offset="100%" stop-color="#fb8500" />
    </linearGradient>
  </defs>

  <rect width="800" height="450" fill="url(#fnBg)" />

  <!-- Cyber Grid -->
  <g stroke="#39e68b" stroke-opacity="0.08" stroke-width="1">
    <path d="M0 60h800M0 120h800M0 180h800M0 240h800M0 300h800M0 360h800" />
    <path d="M100 0v450M200 0v450M300 0v450M400 0v450M500 0v450M600 0v450M700 0v450" />
  </g>

  <!-- Top Title HUD Bar -->
  <rect x="30" y="20" width="740" height="38" fill="#06120c" stroke="#39e68b" stroke-opacity="0.4" rx="4" />
  <circle cx="50" cy="39" r="6" fill="#39e68b" />
  <text x="68" y="44" fill="#39e68b" font-size="13" font-family="'Orbitron', sans-serif" font-weight="700">DATA PIPELINE // FAKE NEWS DATA PROCESSING &amp; ML CLASSIFICATION</text>
  <text x="750" y="44" fill="#22d1ee" font-size="11" text-anchor="end" font-family="'JetBrains Mono', monospace">STATUS: 44,058 VERIFIED</text>

  <!-- Stage 1: Raw Data & Ingestion -->
  <rect x="40" y="90" width="150" height="130" fill="#08140e" stroke="url(#cyberGreen)" stroke-width="2" rx="6" />
  <text x="115" y="120" fill="#39e68b" font-size="12" text-anchor="middle" font-family="'Orbitron', sans-serif" font-weight="700">1. RAW DATA (CSV)</text>
  <text x="115" y="145" fill="#a0b4a8" font-size="10" text-anchor="middle" font-family="'JetBrains Mono', monospace">Fake.csv • True.csv</text>
  <text x="115" y="165" fill="#ffb703" font-size="10" text-anchor="middle" font-family="'JetBrains Mono', monospace">44,898 Records</text>
  <text x="115" y="195" fill="#22d1ee" font-size="9" text-anchor="middle" font-family="'JetBrains Mono', monospace">Automated Ingestion</text>

  <!-- Arrow 1 -->
  <path d="M190 155 L225 155" stroke="#39e68b" stroke-width="2.5" stroke-dasharray="4 2" />
  <polygon points="225,150 235,155 225,160" fill="#39e68b" />

  <!-- Stage 2: ETL & Validation -->
  <rect x="235" y="90" width="150" height="130" fill="#08140e" stroke="url(#amberAlert)" stroke-width="2" rx="6" />
  <text x="310" y="120" fill="#ffb703" font-size="12" text-anchor="middle" font-family="'Orbitron', sans-serif" font-weight="700">2. ETL &amp; CLEANING</text>
  <text x="310" y="145" fill="#a0b4a8" font-size="10" text-anchor="middle" font-family="'JetBrains Mono', monospace">-209 Duplicates</text>
  <text x="310" y="165" fill="#a0b4a8" font-size="10" text-anchor="middle" font-family="'JetBrains Mono', monospace">-631 Empty Rows</text>
  <text x="310" y="195" fill="#39e68b" font-size="10" text-anchor="middle" font-family="'JetBrains Mono', monospace">44,058 Clean Rows</text>

  <!-- Arrow 2 -->
  <path d="M385 155 L420 155" stroke="#39e68b" stroke-width="2.5" stroke-dasharray="4 2" />
  <polygon points="420,150 430,155 420,160" fill="#39e68b" />

  <!-- Stage 3: MySQL & TF-IDF -->
  <rect x="430" y="90" width="150" height="130" fill="#08140e" stroke="url(#cyberGreen)" stroke-width="2" rx="6" />
  <text x="505" y="120" fill="#22d1ee" font-size="12" text-anchor="middle" font-family="'Orbitron', sans-serif" font-weight="700">3. MYSQL &amp; TF-IDF</text>
  <text x="505" y="145" fill="#a0b4a8" font-size="10" text-anchor="middle" font-family="'JetBrains Mono', monospace">MySQL Schema Store</text>
  <text x="505" y="165" fill="#a0b4a8" font-size="10" text-anchor="middle" font-family="'JetBrains Mono', monospace">EDA &amp; Distribution</text>
  <text x="505" y="195" fill="#ffb703" font-size="10" text-anchor="middle" font-family="'JetBrains Mono', monospace">TF-IDF Feature Matrix</text>

  <!-- Arrow 3 -->
  <path d="M580 155 L615 155" stroke="#39e68b" stroke-width="2.5" stroke-dasharray="4 2" />
  <polygon points="615,150 625,155 615,160" fill="#39e68b" />

  <!-- Stage 4: ML Classifier -->
  <rect x="625" y="90" width="145" height="130" fill="#08140e" stroke="url(#cyberGreen)" stroke-width="2" rx="6" />
  <text x="697" y="120" fill="#39e68b" font-size="12" text-anchor="middle" font-family="'Orbitron', sans-serif" font-weight="700">4. ML PREDICTION</text>
  <text x="697" y="145" fill="#a0b4a8" font-size="9" text-anchor="middle" font-family="'JetBrains Mono', monospace">Logistic Regression</text>
  <text x="697" y="165" fill="#a0b4a8" font-size="9" text-anchor="middle" font-family="'JetBrains Mono', monospace">Random Forest</text>
  <text x="697" y="195" fill="#39e68b" font-size="11" text-anchor="middle" font-family="'JetBrains Mono', monospace">REAL vs FAKE ✓</text>

  <!-- Lower Architecture & Metric Telemetry Box -->
  <rect x="40" y="250" width="730" height="165" fill="#06120a" stroke="url(#cyberGreen)" stroke-width="1.5" rx="6" />

  <text x="65" y="285" fill="#39e68b" font-size="13" font-family="'Orbitron', sans-serif" font-weight="700">PIPELINE METRICS &amp; DATA QUALITY TELEMETRY</text>

  <!-- Metric 1 -->
  <rect x="65" y="305" width="150" height="85" fill="#040c07" stroke="#39e68b" stroke-opacity="0.3" rx="4" />
  <text x="140" y="338" fill="#39e68b" font-size="20" text-anchor="middle" font-family="'Orbitron', sans-serif" font-weight="700">44,058</text>
  <text x="140" y="365" fill="#8ea899" font-size="10" text-anchor="middle" font-family="'JetBrains Mono', monospace">CLEAN RECORDS</text>

  <!-- Metric 2 -->
  <rect x="235" y="305" width="150" height="85" fill="#040c07" stroke="#22d1ee" stroke-opacity="0.3" rx="4" />
  <text x="310" y="338" fill="#22d1ee" font-size="20" text-anchor="middle" font-family="'Orbitron', sans-serif" font-weight="700">99.1%</text>
  <text x="310" y="365" fill="#8ea899" font-size="10" text-anchor="middle" font-family="'JetBrains Mono', monospace">ACCURACY SCORE</text>

  <!-- Metric 3 -->
  <rect x="405" y="305" width="150" height="85" fill="#040c07" stroke="#ffb703" stroke-opacity="0.3" rx="4" />
  <text x="480" y="338" fill="#ffb703" font-size="20" text-anchor="middle" font-family="'Orbitron', sans-serif" font-weight="700">80 / 20</text>
  <text x="480" y="365" fill="#8ea899" font-size="10" text-anchor="middle" font-family="'JetBrains Mono', monospace">TRAIN / TEST SPLIT</text>

  <!-- Metric 4 -->
  <rect x="575" y="305" width="170" height="85" fill="#040c07" stroke="#39e68b" stroke-opacity="0.3" rx="4" />
  <text x="660" y="338" fill="#39e68b" font-size="18" text-anchor="middle" font-family="'Orbitron', sans-serif" font-weight="700">SCIKIT-LEARN</text>
  <text x="660" y="365" fill="#8ea899" font-size="10" text-anchor="middle" font-family="'JetBrains Mono', monospace">GRADIENT BOOSTING</text>
</svg>
